<?xml version="1.0" encoding="utf-8"?>
<!-- Generator: Adobe Illustrator 18.1.1, SVG Export Plug-In . SVG Version: 6.00 Build 0)  -->
<svg version="1.1" id="Слой_1" xmlns="http://www.w3.org/2000/svg" xmlns:xlink="http://www.w3.org/1999/xlink" x="0px" y="0px"
	 viewBox="0 0 640 480" enable-background="new 0 0 640 480" xml:space="preserve">
<g>
	<linearGradient id="SVGID_1_" gradientUnits="userSpaceOnUse" x1="104.6213" y1="240.5995" x2="627.5557" y2="240.5995">
		<stop  offset="0" style="stop-color:#fe6055"/>
		<stop  offset="1" style="stop-color:#eb164f"/>
	</linearGradient>
	<path fill="url(#SVGID_1_)" d="M320.714,78.872l-64.269,64.27l-0.114-0.059l-1.256,1.313l-85.9,85.901l0.113,0.057
		c0,0-59.417,59.359-64.667,64.498l161.413,161.526c14.326,14.213,33.162,22.089,53.31,22.374c0.285,0,0.628,0.057,0.969,0.057
		c20.491,0,39.783-7.991,54.223-22.431l193.548-193.604c59.474-59.475,59.474-156.22,0-215.694
		C539.318,18.257,500.962,2.39,460.21,2.39c-40.696,0-79.052,15.868-107.875,44.691L320.6,78.816h0.001L320.714,78.872z
		 M383.613,144.396l32.99-33.046c11.7-11.645,27.168-18.094,43.607-18.094c16.495,0,31.963,6.45,43.664,18.094
		c24.029,24.028,24.029,63.127,0,87.155l-33.105,33.105L320.314,382.007l-1.027-0.971l-86.128-86.184l86.186-86.13L383.613,144.396z
		"/>
	<linearGradient id="SVGID_2_" gradientUnits="userSpaceOnUse" x1="27.3104" y1="148.0215" x2="320.5998" y2="148.0215">
		<stop  offset="0" style="stop-color:#fe6055"/>
		<stop  offset="1" style="stop-color:#f43a52"/>
	</linearGradient>
	<path fill="url(#SVGID_2_)" d="M104.621,294.852l63.24-63.242l1.314-1.313l-32.991-32.991c-24.029-24.028-24.029-63.127,0-87.156
		c11.701-11.699,27.112-18.094,43.606-18.094c16.438,0,31.964,6.394,43.607,18.094l32.933,32.933l63.014-62.955l1.255-1.313h0.001
		l-32.933-32.933C258.843,17.058,220.544,1.191,179.79,1.191c-40.695,0-79.051,15.867-107.874,44.692
		c-59.474,59.416-59.474,156.218,0,215.693L104.621,294.852z"/>
</g>
</svg>
